<?xml version="1.0" encoding="utf-8"?>
<!-- Generator: Adobe Illustrator 24.2.1, SVG Export Plug-In . SVG Version: 6.00 Build 0)  -->
<svg version="1.1" id="attraction-15" xmlns="http://www.w3.org/2000/svg" xmlns:xlink="http://www.w3.org/1999/xlink" x="0px"
	 y="0px" viewBox="0 0 39.1 38.8" style="enable-background:new 0 0 39.1 38.8;" xml:space="preserve">
<style type="text/css">
	.st0{fill:#FFA500;stroke:#000000;stroke-width:0.5;}
	.st1{fill:url(#SVGID_1_);stroke:#000000;stroke-width:0.5;}
</style>
<path id="rect7143" class="st0" d="M18.2,14.8c-0.6,0-0.8,0.5-1,1l-0.5,1h-2c-0.8,0-1.5,0.7-1.5,1.5v5c0,0.8,0.7,1.5,1.5,1.5h10
	c0.8,0,1.5-0.7,1.5-1.5v-5c0-0.8-0.7-1.5-1.5-1.5h-2l-0.5-1c-0.2-0.5-0.4-1-1-1H18.2z M14.7,17.8c0.3,0,0.5,0.2,0.5,0.5
	s-0.2,0.5-0.5,0.5c-0.3,0-0.5-0.2-0.5-0.5S14.4,17.8,14.7,17.8z M19.7,17.8c1.7,0,3,1.3,3,3s-1.3,3-3,3s-3-1.3-3-3
	S18,17.8,19.7,17.8z M19.7,19.3c-0.8,0-1.5,0.7-1.5,1.5l0,0c0,0.8,0.7,1.5,1.5,1.5l0,0c0.8,0,1.5-0.7,1.5-1.5l0,0
	C21.2,20,20.5,19.3,19.7,19.3L19.7,19.3z"/>
<linearGradient id="SVGID_1_" gradientUnits="userSpaceOnUse" x1="11.3612" y1="46.0482" x2="11.3612" y2="28.8249" gradientTransform="matrix(6.123234e-17 1 -1 6.123234e-17 48.9172 9.5611)">
	<stop  offset="0" style="stop-color:#FFFFFF;stop-opacity:0"/>
	<stop  offset="1" style="stop-color:#FCFCFC"/>
</linearGradient>
<polyline class="st1" points="2.9,30.9 20.1,20.9 2.9,11 "/>
</svg>
